HIERARCHY
ROOT Hips
{
	OFFSET 0.000000 0.000000 0.000000
	CHANNELS 6 Xposition Yposition Zposition Zrotation Yrotation Xrotation 
	JOINT LHipJoint
	{
		OFFSET 0.000000 0.000000 0.000000
		CHANNELS 3 Zrotation Yrotation Xrotation
		JOINT LeftUpLeg
		{
			OFFSET 1.363060 -1.794630 0.839290
			CHANNELS 3 Zrotation Yrotation Xrotation
			JOINT LeftLeg
			{
				OFFSET 2.448110 -6.726130 0.000000
				CHANNELS 3 Zrotation Yrotation Xrotation
				JOINT LeftFoot
				{
					OFFSET 2.562200 -7.039590 0.000000
					CHANNELS 3 Zrotation Yrotation Xrotation
					JOINT LeftToeBase
					{
						OFFSET 0.157640 -0.433110 2.322550
						CHANNELS 3 Zrotation Yrotation Xrotation
						End Site
						{
							OFFSET 0.000000 0.000000 0.000000
						}
					}
				}
			}
		}
	}
	JOINT RHipJoint
	{
		OFFSET 0.000000 0.000000 0.000000
		CHANNELS 3 Zrotation Yrotation Xrotation
		JOINT RightUpLeg
		{
			OFFSET -1.305520 -1.794630 0.839290
			CHANNELS 3 Zrotation Yrotation Xrotation
			JOINT RightLeg
			{
				OFFSET -2.542530 -6.985550 0.000000
				CHANNELS 3 Zrotation Yrotation Xrotation
				JOINT RightFoot
				{
					OFFSET -2.568260 -7.056230 0.000000
					CHANNELS 3 Zrotation Yrotation Xrotation
					JOINT RightToeBase
					{
						OFFSET -0.164730 -0.452590 2.363150
						CHANNELS 3 Zrotation Yrotation Xrotation
						End Site
						{
							OFFSET 0.000000 0.000000 0.000000
						}
					}
				}
			}
		}
	}
}
MOTION
Frames: 11
Frame Time: 0.008333
2.828720 16.510959 1.884875 20.341453 -63.562784 15.210361 -8.903242 0.041879 3.119166 -22.928765 -8.566840 -54.857825 -3.476221 1.335928 33.964337 0.525793 0.137629 -8.986730 0.036900 0.000000 -38.445099 8.519296 0.530790 -3.659375 14.631830 -39.444125 -62.906260 6.083828 -5.343036 34.795502 0.089172 2.776643 -5.072851 0.066000 -0.000000 -72.539100
2.840609 16.502361 1.883724 20.042118 -63.637428 15.716764 -8.913545 0.022337 3.088425 -22.751840 -8.636604 -55.262748 -3.460150 1.370078 34.159925 0.532580 0.137424 -9.064699 0.033800 0.000000 -38.467300 8.496854 0.556515 -3.695267 14.748131 -39.074122 -63.116573 6.050229 -5.368588 35.039366 0.036750 2.486354 -5.155799 0.038200 0.000000 -72.471600
2.854213 16.493095 1.881413 19.764711 -63.754307 16.202644 -8.921692 -0.004661 3.051174 -22.567953 -8.711928 -55.679861 -3.438492 1.403131 34.373220 0.549939 0.192573 -9.158796 0.030500 0.000000 -38.467200 8.478990 0.584007 -3.725618 14.830579 -38.653003 -63.328235 6.012621 -5.397010 35.299454 -0.018426 2.186370 -5.248215 0.010000 0.000000 -72.385900
2.869198 16.482964 1.877711 19.520709 -63.906294 16.657855 -8.925997 -0.036792 3.010760 -22.383627 -8.797562 -56.107685 -3.412362 1.435294 34.603141 0.576938 0.297824 -9.266754 0.027100 0.000000 -38.442500 8.465592 0.612944 -3.749690 14.889564 -38.199642 -63.557685 5.972972 -5.429907 35.579966 -0.073580 1.893352 -5.353801 -0.017300 0.000000 -72.282100
2.885147 16.471874 1.872449 19.314725 -64.085238 17.075253 -8.924601 -0.071129 2.971817 -22.205231 -8.895227 -56.543931 -3.383118 1.466565 34.847357 0.612050 0.444713 -9.385369 0.023300 -0.000000 -38.395300 8.457423 0.641535 -3.764907 14.935591 -37.732193 -63.817601 5.933092 -5.468170 35.882494 -0.125951 1.622850 -5.474165 -0.042000 0.000000 -72.161500
2.901413 16.460022 1.865465 19.158091 -64.288687 17.446505 -8.917999 -0.104949 2.934344 -22.040507 -8.999756 -56.984203 -3.353141 1.497351 35.096994 0.653113 0.622405 -9.507999 0.019400 0.000000 -38.331100 8.453287 0.670668 -3.772098 14.975658 -37.263583 -64.113579 5.894474 -5.511240 36.201549 -0.173135 1.386947 -5.606744 -0.063100 0.000000 -72.029200
2.917542 16.447544 1.856734 19.057096 -64.512382 17.768959 -8.906983 -0.137640 2.896621 -21.895604 -9.106199 -57.428009 -3.324413 1.528080 35.347372 0.697861 0.818791 -9.630844 0.015300 -0.000000 -38.255500 8.451960 0.700367 -3.772690 15.015678 -36.802951 -64.451473 5.858462 -5.559476 36.534499 -0.213392 1.193999 -5.750138 -0.079900 0.000000 -71.888699
2.933227 16.434502 1.846267 19.015656 -64.753604 18.043362 -8.892567 -0.168860 2.856182 -21.776133 -9.208076 -57.876446 -3.298719 1.559419 35.596279 0.743982 1.021631 -9.750925 0.011100 0.000001 -38.173400 8.452433 0.730594 -3.768046 15.059504 -36.354793 -64.834685 5.825997 -5.613121 36.879230 -0.245729 1.048177 -5.903102 -0.092001 0.000000 -71.743399
2.948369 16.420863 1.834150 19.033351 -65.010674 18.272201 -8.875665 -0.198282 2.810683 -21.686336 -9.297781 -58.332413 -3.277577 1.592357 35.844544 0.789261 1.218878 -9.867387 0.006700 0.000000 -38.089100 8.454055 0.761193 -3.758806 15.109278 -35.919062 -65.264993 5.797245 -5.672286 37.235569 -0.269893 0.949718 -6.064609 -0.099600 0.000000 -71.595301
2.962736 16.406632 1.820552 19.107357 -65.283992 18.461525 -8.857091 -0.225142 2.758938 -21.628214 -9.368394 -58.799382 -3.262190 1.627733 36.093134 0.831902 1.400816 -9.979986 0.002000 0.000000 -38.006700 8.456810 0.791584 -3.744695 15.165662 -35.491755 -65.740209 5.771899 -5.736408 37.602327 -0.286431 0.894481 -6.232651 -0.103400 0.000000 -71.446200
2.976549 16.391817 1.805588 19.230214 -65.572087 18.614241 -8.837233 -0.249188 2.699705 -21.605015 -9.411841 -59.277299 -3.253452 1.666165 36.344034 0.870147 1.558147 -10.089186 -0.002899 -0.000000 -37.928900 8.461400 0.820670 -3.724368 15.225676 -35.068448 -66.255098 5.749014 -5.804994 37.979486 -0.296309 0.876502 -6.405692 -0.103900 -0.000000 -71.297900
